<svg width="26" height="27" viewBox="0 0 26 27" fill="none" xmlns="http://www.w3.org/2000/svg">
<path d="M9.31856 4.5625C6.43337 4.5625 4.0625 6.93012 4.0625 9.81856V17.1814C4.0625 20.0666 6.43012 22.4375 9.31856 22.4375H16.6814C19.5666 22.4375 21.9375 20.0699 21.9375 17.1814V9.81938C21.9375 6.93338 19.5699 4.5625 16.6814 4.5625H9.31856ZM9.31856 6.1875H16.6814C17.1585 6.18686 17.6309 6.28034 18.0717 6.46259C18.5126 6.64484 18.9131 6.91228 19.2504 7.24958C19.5877 7.58689 19.8552 7.98743 20.0374 8.42826C20.2197 8.86909 20.3131 9.34154 20.3125 9.81856V17.1814C20.3131 17.6585 20.2197 18.1309 20.0374 18.5717C19.8552 19.0126 19.5877 19.4131 19.2504 19.7504C18.9131 20.0877 18.5126 20.3552 18.0717 20.5374C17.6309 20.7197 17.1585 20.8131 16.6814 20.8125H9.31938C8.84229 20.8132 8.36974 20.7198 7.92882 20.5376C7.4879 20.3554 7.08726 20.088 6.74987 19.7507C6.41248 19.4134 6.14497 19.0128 5.96267 18.5719C5.78037 18.131 5.68686 17.6585 5.6875 17.1814V9.81938C5.68675 9.34229 5.78015 8.86974 5.96236 8.42882C6.14456 7.9879 6.41198 7.58726 6.74929 7.24987C7.08661 6.91248 7.48718 6.64497 7.92807 6.46267C8.36895 6.28037 8.84148 6.18686 9.31856 6.1875ZM17.7986 7.96525C17.7018 7.96482 17.6059 7.98357 17.5164 8.02041C17.4269 8.05725 17.3456 8.11146 17.2771 8.1799C17.2087 8.24834 17.1545 8.32966 17.1177 8.41916C17.0808 8.50867 17.0621 8.60459 17.0625 8.70138C17.0625 9.11088 17.3891 9.4375 17.7986 9.4375C17.8955 9.43804 17.9915 9.41937 18.0811 9.38258C18.1707 9.34578 18.2521 9.29159 18.3206 9.22314C18.3892 9.15469 18.4434 9.07333 18.4803 8.98378C18.5172 8.89422 18.536 8.79823 18.5356 8.70138C18.536 8.60452 18.5172 8.50853 18.4803 8.41897C18.4434 8.32942 18.3892 8.24806 18.3206 8.17961C18.2521 8.11116 18.1707 8.05697 18.0811 8.02017C17.9915 7.98338 17.8955 7.96471 17.7986 7.96525ZM13 8.625C10.3187 8.625 8.125 10.8187 8.125 13.5C8.125 16.1812 10.3187 18.375 13 18.375C15.6812 18.375 17.875 16.1812 17.875 13.5C17.875 10.8187 15.6812 8.625 13 8.625ZM13 10.25C14.8062 10.25 16.25 11.6938 16.25 13.5C16.25 15.3062 14.8062 16.75 13 16.75C11.1938 16.75 9.75 15.3062 9.75 13.5C9.75 11.6938 11.1938 10.25 13 10.25Z" fill="#111111"/>
</svg>
