<svg width="26" height="27" viewBox="0 0 26 27" fill="none" xmlns="http://www.w3.org/2000/svg">
<path d="M22.75 7.45409C22.0199 7.77732 21.2453 7.98904 20.4523 8.08215C21.2872 7.58221 21.912 6.79596 22.2105 5.86972C21.4253 6.33507 20.5667 6.66366 19.6714 6.84147C19.123 6.25513 18.4108 5.84737 17.6275 5.67122C16.8442 5.49506 16.026 5.55866 15.2793 5.85374C14.5326 6.14882 13.892 6.66173 13.4407 7.32577C12.9894 7.98982 12.7484 8.77428 12.7489 9.57715C12.7489 9.89159 12.7839 10.1963 12.8546 10.488C11.2633 10.4096 9.70638 9.9969 8.2853 9.27662C6.86421 8.55635 5.61084 7.54472 4.60688 6.30765C4.25017 6.91825 4.06307 7.61306 4.06494 8.32022C4.06494 9.70715 4.76937 10.9324 5.84512 11.6498C5.20972 11.6297 4.5884 11.4575 4.03325 11.1477V11.1989C4.0327 12.1229 4.3521 13.0185 4.93717 13.7336C5.52223 14.4487 6.33687 14.9392 7.24262 15.1217C6.65362 15.2832 6.03535 15.3071 5.43563 15.1915C5.69108 15.9864 6.18844 16.6816 6.85822 17.1801C7.528 17.6786 8.33675 17.9554 9.1715 17.9719C8.34165 18.6233 7.39149 19.1046 6.3754 19.3883C5.35932 19.672 4.29725 19.7526 3.25 19.6253C5.07855 20.8021 7.20748 21.4269 9.38194 21.425C16.7416 21.425 20.7667 15.328 20.7667 10.0403C20.7667 9.86965 20.7602 9.69415 20.7537 9.52272C21.5358 8.95645 22.2116 8.25641 22.75 7.4549V7.45409Z" fill="#111111"/>
</svg>
