<svg width="26" height="27" viewBox="0 0 26 27" fill="none" xmlns="http://www.w3.org/2000/svg">
<path d="M0.8125 5.98438V21.0156H8.07462C8.74737 21.0156 13.3802 20.8791 13.3802 16.6484C13.3802 14.0046 11.5619 13.1059 10.6389 12.8394C11.3181 12.5193 12.6701 11.7572 12.6701 9.717C12.6701 8.58031 12.5076 5.98438 7.8715 5.98438H0.8125ZM17.3672 7.38106V8.75175H22.9783V7.38188L17.3672 7.38106ZM4.11287 8.54862H7.21094C7.50344 8.54862 9.4705 8.39344 9.4705 10.2752C9.4705 11.8839 8.04862 12.0529 7.46444 12.0529H4.1145L4.11287 8.54862ZM20.3125 9.99569C16.0688 9.99569 15.1832 13.6812 15.1832 15.2769C15.1832 20.0163 19.0686 20.5582 20.3125 20.5582C23.6673 20.5582 24.6187 18.388 25.0096 17.1814H22.5721C22.477 17.4926 21.7661 18.5017 20.4141 18.5017C18.1472 18.5017 17.9514 16.7305 17.9514 15.9375H25.1623C25.3086 13.1953 24.1085 9.99569 20.3125 9.99569ZM20.2361 12.0529C20.9121 12.0529 21.4581 12.2496 21.7856 12.6111C22.1122 12.9767 22.3535 13.5097 22.4193 14.2109H17.9506C17.9636 14.0176 18.0082 13.7949 18.0781 13.5504C18.148 13.3001 18.2561 13.0621 18.434 12.8394C18.6111 12.6209 18.8589 12.4307 19.1449 12.2812C19.4366 12.1285 19.7982 12.0529 20.2361 12.0529ZM4.11369 14.3125H7.69356C8.4045 14.3125 10.0799 14.4238 10.0799 16.4705C10.0799 18.4546 7.96981 18.4514 7.64237 18.4514H4.11287L4.11369 14.3125Z" fill="#111111"/>
</svg>
