<svg width="26" height="27" viewBox="0 0 26 27" fill="none" xmlns="http://www.w3.org/2000/svg">
<path d="M13 3.75C7.61394 3.75 3.25 8.11394 3.25 13.5C3.25 17.6324 5.82075 21.1586 9.44856 22.5805C9.36244 21.8086 9.28363 20.6256 9.48025 19.7806L10.6226 14.9349C10.6226 14.9349 10.3342 14.3499 10.3342 13.487C10.3342 12.1317 11.1182 11.1194 12.0957 11.1194C12.9269 11.1194 13.3307 11.745 13.3307 12.4941C13.3307 13.3318 12.7969 14.5822 12.5206 15.7409C12.2923 16.7118 13.0098 17.5024 13.9644 17.5024C15.6975 17.5024 17.0308 15.6742 17.0308 13.0369C17.0308 10.7042 15.3546 9.07187 12.9586 9.07187C10.1847 9.07187 8.55644 11.1519 8.55644 13.3034C8.55644 14.1411 8.88062 15.0397 9.28362 15.528C9.36244 15.6231 9.373 15.7092 9.35025 15.8075C9.25947 16.1756 9.16956 16.544 9.0805 16.9125C9.03581 17.0929 8.9375 17.1311 8.75306 17.0425C7.53431 16.477 6.773 14.6968 6.773 13.2644C6.773 10.1899 9.00738 7.36562 13.2161 7.36562C16.5994 7.36562 19.227 9.77387 19.227 12.9987C19.227 16.3567 17.1064 19.0599 14.1676 19.0599C13.1812 19.0599 12.2509 18.5497 11.9332 17.9436C11.9332 17.9436 11.4449 19.8034 11.3238 20.26C11.1053 21.1074 10.5113 22.1677 10.1116 22.8153C11.0471 23.1043 12.0208 23.2508 13 23.25C18.3861 23.25 22.75 18.8861 22.75 13.5C22.75 8.11394 18.3861 3.75 13 3.75Z" fill="#111111"/>
</svg>
